<?xml version="1.0" encoding="UTF-8"?>
<svg version="1.1" xmlns="http://www.w3.org/2000/svg" width="1024" height="1024">
<path d="M0 0 C2.54474937 -0.00346381 5.08949723 -0.00823319 7.634242 -0.01418173 C13.12983443 -0.02403652 18.62530556 -0.02474423 24.1208992 -0.01704025 C32.2934488 -0.00561515 40.46592463 -0.01153394 48.63847385 -0.02066517 C63.24081904 -0.03640509 77.84312467 -0.03511623 92.44547355 -0.02642844 C105.22407437 -0.01886358 118.00266075 -0.01692012 130.78126335 -0.02049637 C131.63090694 -0.02072552 132.48055053 -0.02095468 133.35594089 -0.02119078 C136.80543802 -0.02212488 140.25493514 -0.0230801 143.70443225 -0.02407007 C176.02200827 -0.03323422 208.33955918 -0.02494695 240.65713132 -0.00877938 C269.33299336 0.0054573 298.00881543 0.00418098 326.68467712 -0.01016235 C358.9469584 -0.02624587 391.20921752 -0.03258543 423.47150224 -0.02332556 C426.91418262 -0.02236349 430.356863 -0.02142497 433.79954338 -0.02049637 C434.64713911 -0.02025914 435.49473484 -0.0200219 436.36801528 -0.01977748 C449.13537508 -0.01637329 461.9027188 -0.02034049 474.67007637 -0.02793503 C489.19468012 -0.03653209 503.71923835 -0.03432726 518.24383647 -0.0180928 C526.36039646 -0.00931859 534.47685775 -0.00865847 542.59341507 -0.02003132 C548.6700832 -0.02760281 554.74662507 -0.01932335 560.82328563 -0.0051076 C563.26916023 -0.00177686 565.71504816 -0.00341499 568.16091407 -0.01073496 C586.08085857 -0.06022076 603.58406845 1.02490822 620.91099548 5.94345093 C621.80560486 6.19465698 622.70021423 6.44586304 623.62193298 6.7046814 C658.26409662 16.84050065 688.21949458 34.90884489 714.75474548 59.13485718 C716.40687014 60.63797692 718.07380435 62.12497119 719.75474548 63.59579468 C725.71743026 68.8315472 731.08065044 74.34014882 736.22349548 80.38095093 C736.93264099 81.20562866 736.93264099 81.20562866 737.65611267 82.04696655 C751.62086622 98.37635888 763.38527619 116.28887061 773.22349548 135.38095093 C773.70375183 136.31052612 773.70375183 136.31052612 774.19371033 137.25888062 C783.19774689 154.95994344 789.39744717 173.9231322 793.22349548 193.38095093 C793.39732433 194.1960485 793.57115318 195.01114607 793.75024956 195.85094357 C795.91810371 207.52538478 795.50418107 219.32235902 795.48419189 231.15072632 C795.48721466 233.68373286 795.49110477 236.21673849 795.49578446 238.74974251 C795.50391557 244.24447014 795.5058695 249.73914568 795.50228119 255.23387718 C795.49695903 263.40534667 795.50308476 271.57678026 795.51136412 279.74824584 C795.52658538 295.19521183 795.52831103 310.6421614 795.52584109 326.08913332 C795.52400641 338.02228433 795.52577174 349.95542998 795.53006554 361.88858032 C795.53066795 363.60476478 795.53126915 365.32094924 795.53186914 367.03713369 C795.53277643 369.62349309 795.53368509 372.20985248 795.53460149 374.79621187 C795.54302858 398.83705206 795.54736851 422.87789023 795.54319477 446.91873169 C795.54303839 447.82460295 795.54288202 448.73047422 795.5427209 449.66379613 C795.54191516 454.25478598 795.54106939 458.84577583 795.5402076 463.43676567 C795.54003651 464.348498 795.53986543 465.26023034 795.53968915 466.19959092 C795.5393425 468.04333568 795.53899397 469.88708043 795.53864357 471.73082519 C795.533289 500.40539099 795.54121027 529.07992602 795.55967712 557.75448608 C795.58041689 589.99584122 795.5911159 622.23717729 795.58710164 654.47853947 C795.58670632 657.91995811 795.58634477 661.36137676 795.58600426 664.80279541 C795.58586816 666.07377115 795.58586816 666.07377115 795.58572931 667.37042316 C795.58456571 680.13444868 795.59119368 692.89845489 795.60181618 705.66247559 C795.61389436 720.19016936 795.61539723 734.71782074 795.60302601 749.24551517 C795.59642106 757.36404849 795.59797348 765.48248031 795.61161452 773.6010054 C795.62088928 779.6812486 795.61428411 785.76137002 795.60176673 791.84161174 C795.59912787 794.28774474 795.60146057 796.73388972 795.60950259 799.18001091 C795.66767461 818.20734646 794.07516098 836.49808395 789.47349548 855.00595093 C789.21455505 856.05460327 788.95561462 857.10325562 788.68882751 858.1836853 C780.36219833 890.85313775 764.20989386 920.9261298 742.22349548 946.38095093 C741.44361267 947.29102905 740.66372986 948.20110718 739.86021423 949.13876343 C737.69433272 951.60161224 735.48004854 954.00090492 733.22349548 956.38095093 C732.7550824 956.87659546 732.28666931 957.37223999 731.80406189 957.88290405 C723.86175621 966.22828238 715.4624435 973.5130147 706.22349548 980.38095093 C705.66581482 980.80473022 705.10813416 981.22850952 704.53355408 981.66513062 C694.97432662 988.92311423 684.87007411 994.85844171 674.22349548 1000.38095093 C673.10031921 1000.96707153 673.10031921 1000.96707153 671.95445251 1001.56503296 C638.86549548 1018.6138945 603.90594481 1024.70405233 567.04826355 1024.64164734 C564.50783036 1024.64467161 561.96739807 1024.64856247 559.42696738 1024.65323991 C553.92533524 1024.66135791 548.42375512 1024.66333053 542.92211914 1024.65973663 C534.74048436 1024.65440628 526.55888533 1024.66054827 518.37725443 1024.66881957 C502.91130515 1024.68402631 487.4453723 1024.68576806 471.97941712 1024.68329654 C460.03298068 1024.68146092 448.0865496 1024.68322913 436.14011383 1024.68752098 C434.42124491 1024.68812339 432.702376 1024.68872459 430.98350708 1024.68932458 C428.39304927 1024.69023188 425.80259147 1024.69114055 423.21213366 1024.69205694 C399.14020785 1024.70048148 375.06828405 1024.7048256 350.99635696 1024.70065022 C349.63633502 1024.70041565 349.63633502 1024.70041565 348.24883789 1024.70017635 C343.653856 1024.69937062 339.05887413 1024.69852484 334.46389225 1024.69766305 C333.5513828 1024.69749196 332.63887335 1024.69732087 331.6987121 1024.6971446 C329.85339832 1024.69679794 328.00808454 1024.69644941 326.16277076 1024.69609901 C297.45415904 1024.69074266 268.74557804 1024.69867184 240.03697205 1024.71713257 C207.75092416 1024.73786962 175.46489531 1024.74857204 143.1788404 1024.74455708 C139.73327367 1024.74416176 136.28770693 1024.74380021 132.8421402 1024.7434597 C131.99381197 1024.74336897 131.14548374 1024.74327824 130.27144859 1024.74318476 C117.49087133 1024.74202103 104.71031335 1024.7486499 91.92974091 1024.75927162 C77.3867202 1024.77134607 62.84374184 1024.77285676 48.30072048 1024.76048145 C40.17307444 1024.75387394 32.04552977 1024.75543498 23.91789193 1024.76906997 C17.83276743 1024.77833815 11.74776474 1024.7717461 5.66264173 1024.75922217 C3.21325149 1024.75658141 0.76384928 1024.75892208 -1.6855292 1024.76695804 C-19.75507543 1024.82209121 -37.31922958 1023.69374074 -54.77650452 1018.69345093 C-55.67965393 1018.43998901 -56.58280334 1018.1865271 -57.51332092 1017.92538452 C-72.9678228 1013.4363351 -87.60183803 1006.94807699 -101.77650452 999.38095093 C-102.92119202 998.77895874 -104.06587952 998.17696655 -105.24525452 997.55673218 C-120.75223897 989.07412715 -134.66700716 978.17489603 -147.77650452 966.38095093 C-148.35303772 965.86613159 -148.92957092 965.35131226 -149.52357483 964.82089233 C-155.38030576 959.57647077 -161.14135162 954.32222549 -166.19056702 948.27548218 C-167.88724261 946.24866528 -169.67154927 944.32338712 -171.46400452 942.38095093 C-195.83464979 914.86419152 -214.08433662 880.94211468 -223.65150452 845.50595093 C-223.83060364 844.84305054 -224.00970276 844.18015015 -224.19422913 843.49716187 C-224.78520656 841.13550668 -225.28196645 838.76496186 -225.77650452 836.38095093 C-226.02313988 835.21252098 -226.26977525 834.04409104 -226.52388442 832.84025413 C-229.128088 819.56192773 -229.1977958 806.50128341 -229.15745544 793.00990295 C-229.16091753 790.47258024 -229.16568578 787.93525903 -229.17163718 785.39794093 C-229.18150781 779.90925302 -229.18218767 774.42068648 -229.1744957 768.9319973 C-229.16308818 760.76961295 -229.1689805 752.60730264 -229.17812062 744.44491869 C-229.19387492 729.8610618 -229.19256567 715.27724447 -229.18388388 700.69338386 C-229.17632276 687.92856345 -229.17437382 675.16375751 -229.17795181 662.39893532 C-229.17818097 661.55061698 -229.17841012 660.70229864 -229.17864622 659.82827369 C-229.17958032 656.3842208 -229.18053553 652.94016791 -229.18152551 649.49611504 C-229.19069342 617.21678888 -229.18239703 584.93748784 -229.16623482 552.65816556 C-229.1520029 524.01634944 -229.1532697 495.37457334 -229.1676178 466.73275757 C-229.18370342 434.51516904 -229.19003925 402.2976027 -229.18078101 370.08001071 C-229.17981894 366.64147842 -229.17888041 363.20294613 -229.17795181 359.76441383 C-229.17771458 358.91782918 -229.17747735 358.07124452 -229.17723293 357.19900579 C-229.17382909 344.44819773 -229.17779538 331.69740578 -229.18539047 318.94659996 C-229.19399019 304.43732314 -229.19177734 289.92809188 -229.17554824 275.4188207 C-229.16677744 267.31137344 -229.16610886 259.204025 -229.17748676 251.09658042 C-229.18506363 245.0247936 -229.17677136 238.95313298 -229.16256304 232.88135371 C-229.15923472 230.43873637 -229.1608649 227.99610567 -229.1681904 225.55349704 C-229.22080848 206.53748697 -227.62543046 188.25279946 -223.02650452 169.75595093 C-222.76756409 168.70729858 -222.50862366 167.65864624 -222.24183655 166.57821655 C-213.91520737 133.90876411 -197.76290289 103.83577206 -175.77650452 78.38095093 C-174.9966217 77.4708728 -174.21673889 76.56079468 -173.41322327 75.62313843 C-171.24734175 73.16028961 -169.03305757 70.76099694 -166.77650452 68.38095093 C-166.30809143 67.8853064 -165.83967834 67.38966187 -165.35707092 66.8789978 C-157.41476524 58.53361948 -149.01545253 51.24888715 -139.77650452 44.38095093 C-139.21882385 43.95717163 -138.66114319 43.53339233 -138.08656311 43.09677124 C-114.96400022 25.54062632 -87.53505178 13.0382758 -59.40150452 6.13095093 C-58.45919983 5.89682495 -57.51689514 5.66269897 -56.54603577 5.42147827 C-37.73514187 1.03038105 -19.25712395 -0.0576901 0 0 Z " fill="#0E1828" transform="translate(228.77650451660156,-0.380950927734375)"/>
<path d="M0 0 C1.47982716 0.8815472 2.94222051 1.79388451 4.375 2.75 C5.73625 3.5853125 5.73625 3.5853125 7.125 4.4375 C11.28404859 8.71207772 14.48938463 14.09315389 16.375 19.75 C16.35179687 20.81605469 16.32859375 21.88210938 16.3046875 22.98046875 C16.14517879 34.5220635 19.73107121 40.64783195 26.70996094 49.578125 C29.67870992 53.45055769 32.41222573 57.48794826 35.1875 61.5 C36.38022149 63.2040279 37.57424277 64.90714673 38.76953125 66.609375 C42.30812124 71.65384968 45.84201145 76.70160129 49.375 81.75 C50.54164481 83.41668197 51.7083115 85.08334862 52.875 86.75 C64.54166667 103.41666667 76.20833333 120.08333333 87.875 136.75 C88.4527417 137.57532227 89.0304834 138.40064453 89.62573242 139.25097656 C90.79004511 140.91432683 91.95427065 142.57773809 93.1184082 144.24121094 C96.07037196 148.45912809 99.02393634 152.67590872 101.98046875 156.890625 C102.5734375 157.73786133 103.16640625 158.58509766 103.77734375 159.45800781 C104.95759167 161.13863436 106.14370473 162.81515884 107.3359375 164.48730469 C110.13333415 168.4303767 112.78797268 172.37484275 115.20703125 176.5625 C119.65738844 184.30263567 119.65738844 184.30263567 126.78125 189.296875 C131.09288726 189.84051622 133.4096052 189.55079856 137.375 187.75 C141.5398383 184.01161455 144.1505151 178.97299088 146.91943359 174.1796875 C149.44635085 169.96165991 152.33456089 166.00134137 155.1875 162 C156.38287528 160.29783268 157.57687447 158.59469819 158.76953125 156.890625 C159.36588379 156.04048828 159.96223633 155.19035156 160.57666016 154.31445312 C163.51224984 150.12826875 166.44343609 145.93900408 169.375 141.75 C170.54164481 140.08331803 171.7083115 138.41665138 172.875 136.75 C173.74125 135.5125 173.74125 135.5125 174.625 134.25 C207.875 86.75 207.875 86.75 209.62573242 84.24902344 C210.79004511 82.58567317 211.95427065 80.92226191 213.1184082 79.25878906 C216.669055 74.18544289 220.221957 69.11369798 223.78051758 64.04589844 C224.96077264 62.35968117 226.13646131 60.6702577 227.30737305 58.97753906 C230.00858901 55.07770415 232.74255452 51.23840588 235.6640625 47.5 C241.98405873 39.24596143 244.20642149 33.92700065 244.17578125 23.51953125 C244.55160339 16.40838686 247.56312178 10.60780726 252.52734375 5.5625 C254.72923737 3.75581806 256.94143431 2.22567281 259.375 0.75 C260.426875 0.110625 261.47875 -0.52875 262.5625 -1.1875 C270.72988715 -3.46365707 279.7351523 -3.61918484 287.3515625 0.4296875 C295.30589945 5.61996914 300.35251946 11.68255838 303.375 20.75 C304.01575886 27.74582627 303.7899647 33.36146766 300.25 39.51953125 C298.16398893 44.83699697 299.5800935 50.441893 300.92428589 55.7956543 C301.17475007 56.80754082 301.17475007 56.80754082 301.43027413 57.8398695 C301.98852645 60.08667895 302.55844924 62.33035538 303.12841797 64.57421875 C303.53340892 66.19384465 303.93767621 67.81365165 304.34127808 69.43362427 C305.44246963 73.84468073 306.55387581 78.25310682 307.66711187 82.66113663 C308.84968612 87.35099541 310.022937 92.04318619 311.19729614 96.73510742 C313.44286971 105.7007591 315.69700369 114.6642362 317.9540807 123.62699795 C320.44981609 133.53935083 322.93548907 143.45421666 325.42047644 153.36926842 C335.19682406 192.37213331 345.02273303 231.36248848 354.92956936 270.33242512 C355.27389018 271.68734367 355.61793235 273.04233306 355.96168792 274.39739513 C356.78725099 277.65098923 357.61742754 280.90320516 358.45503807 284.1537323 C360.00878279 290.21042139 361.5099018 296.2657392 362.86846697 302.36880875 C363.52849913 305.3242259 364.21082653 308.27431721 364.89430404 311.22438812 C365.21245669 312.62747055 365.51944842 314.0331392 365.81420541 315.44132233 C367.5819941 324.65301701 367.5819941 324.65301701 373.49832153 331.50292969 C374.78729282 332.25754056 376.07905603 333.00742759 377.375 333.75 C383.36801478 340.69171596 385.89417468 347.74960377 385.68359375 356.87890625 C384.76136086 365.45917428 380.56246076 371.92650752 374.375 377.75 C366.40374046 383.93179311 358.22004449 384.82223257 348.375 383.75 C344.69634594 382.53026134 341.60422983 380.87611506 338.375 378.75 C337.446875 378.151875 336.51875 377.55375 335.5625 376.9375 C329.34143004 370.71643004 326.107571 363.24756511 326 354.4375 C326.05362478 349.18822985 326.82138675 345.59013436 329.59765625 341.140625 C331.7880641 334.40429533 328.51608925 325.61301231 326.82505798 318.94895935 C326.43175532 317.36934051 326.43175532 317.36934051 326.03050715 315.75781018 C325.15474144 312.24654348 324.27061 308.73743924 323.38647461 305.22827148 C322.75528773 302.70493495 322.12461953 300.18146863 321.49443054 297.65788269 C320.13904137 292.23371112 318.77936681 286.81062866 317.41673088 281.38827324 C315.44662294 273.54856976 313.48305578 265.70723963 311.52105362 257.86550415 C308.33724419 245.14119498 305.14818838 232.41820686 301.95581055 219.69604492 C298.85571448 207.34159351 295.75810352 194.98652339 292.66381836 182.63061523 C292.47291337 181.86830888 292.28200837 181.10600252 292.08531838 180.32059597 C291.12756792 176.49611959 290.16986616 172.67163102 289.2121886 168.84713638 C281.27400675 137.14619711 273.32730106 105.4474004 265.375 73.75 C263.95499326 75.63468525 262.5361431 77.5202233 261.11791992 79.40625 C259.93258919 80.98116211 259.93258919 80.98116211 258.72331238 82.58789062 C255.27146158 87.23596465 251.97313976 91.98369098 248.6875 96.75 C247.29062428 98.76710695 245.89348402 100.78403073 244.49609375 102.80078125 C243.80499512 103.79932129 243.11389648 104.79786133 242.40185547 105.82666016 C239.3650605 110.20663882 236.30891137 114.57295044 233.25 118.9375 C232.68063721 119.75025391 232.11127441 120.56300781 231.5246582 121.40039062 C230.38080736 123.03311796 229.23684631 124.66576808 228.09277344 126.29833984 C225.1853791 130.44786428 222.28031999 134.59902306 219.375 138.75 C218.20834425 140.41667431 217.04167759 142.08334098 215.875 143.75 C215.00875 144.9875 215.00875 144.9875 214.125 146.25 C194.875 173.75 194.875 173.75 193.12182617 176.25390625 C191.96495095 177.90700091 190.80885291 179.56063977 189.65356445 181.21484375 C186.59351203 185.5941303 183.5172792 189.96088933 180.41796875 194.3125 C179.77279297 195.22257813 179.12761719 196.13265625 178.46289062 197.0703125 C177.22302695 198.81860948 175.97844459 200.56357239 174.72851562 202.3046875 C174.17228516 203.09101562 173.61605469 203.87734375 173.04296875 204.6875 C172.55078857 205.37714844 172.0586084 206.06679688 171.55151367 206.77734375 C170.32584998 208.83240966 169.67833669 210.37840415 169.375 212.75 C170.30666826 214.78273074 171.3099985 216.78384339 172.375 218.75 C175.10830622 227.78367374 174.71755116 240.15429425 170.58203125 248.64453125 C170.18371094 249.33933594 169.78539062 250.03414062 169.375 250.75 C168.76205078 251.83861328 168.76205078 251.83861328 168.13671875 252.94921875 C166.94931021 254.93803615 165.69199462 256.84529117 164.375 258.75 C163.818125 259.595625 163.26125 260.44125 162.6875 261.3125 C154.19881794 270.26002974 143.56409677 274.67307505 131.31762695 275.22094727 C118.47499654 275.40140222 109.01454446 271.17110604 99.375 262.75 C89.46177774 252.31282308 86.98963253 241.01730072 87.14453125 227.19921875 C87.3076359 222.22400759 88.40254236 218.32610172 90.375 213.75 C91.1521159 211.76093987 91.1521159 211.76093987 91.375 209.75 C89.88037618 207.33186879 88.37871613 205.21726611 86.625 203 C85.59289237 201.64617502 84.56300788 200.2906528 83.53515625 198.93359375 C83.0055127 198.23862793 82.47586914 197.54366211 81.93017578 196.82763672 C79.54304656 193.638552 77.29984241 190.35762366 75.0625 187.0625 C70.93539756 181.01348083 66.76611901 174.99612534 62.5625 169 C61.97364014 168.15993408 61.38478027 167.31986816 60.77807617 166.4543457 C59.57667417 164.74092421 58.3750945 163.02762729 57.17333984 161.31445312 C54.23775016 157.12826875 51.30656391 152.93900408 48.375 148.75 C47.20835519 147.08331803 46.0416885 145.41665138 44.875 143.75 C23.875 113.75 23.875 113.75 22.12255859 111.24633789 C20.96424872 109.59172508 19.80572261 107.93726363 18.64697266 106.28295898 C15.60059073 101.93313074 12.55880788 97.58017714 9.5234375 93.22265625 C8.89179688 92.31708984 8.26015625 91.41152344 7.609375 90.47851562 C6.40225285 88.74771548 5.19644585 87.01599708 3.9921875 85.28320312 C3.445625 84.50009766 2.8990625 83.71699219 2.3359375 82.91015625 C1.85946777 82.22574463 1.38299805 81.54133301 0.89208984 80.83618164 C-0.8716942 78.4107657 -2.74609245 76.08693435 -4.625 73.75 C-12.93781628 106.74950637 -21.23700088 139.75240661 -29.5179129 172.75993297 C-30.49548603 176.65646766 -31.473172 180.55297402 -32.45092773 184.44946289 C-32.74290614 185.61304839 -32.74290614 185.61304839 -33.0407831 186.80014067 C-36.19313874 199.36169443 -39.35463123 211.92093142 -42.51950432 224.47933651 C-45.76657438 237.36476236 -49.00381796 250.25262779 -52.23194641 263.14281219 C-54.22430235 271.09714018 -56.22430467 279.04946457 -58.23412012 286.99939936 C-59.6114544 292.4506064 -60.97923939 297.90415317 -62.33953781 303.35963608 C-63.12473055 306.50745485 -63.9154974 309.65368527 -64.7148037 312.79795456 C-65.58104854 316.20830831 -66.43128323 319.62226902 -67.27760315 323.03761292 C-67.53342763 324.02886958 -67.78925211 325.02012625 -68.05282885 326.041421 C-69.64829022 332.57896359 -70.17716853 337.64566294 -67.0625 343.875 C-63.93263197 350.7700063 -64.73411014 359.24890616 -67.3125 366.1875 C-71.15545824 374.46258082 -76.82186972 378.94203374 -84.92578125 382.86328125 C-92.1388533 385.23284327 -101.24752645 384.89910055 -108.125 381.6875 C-116.07324898 376.98720659 -121.50518933 370.72118946 -124.20703125 361.8359375 C-126.20342065 351.87264835 -123.71103538 344.29443847 -118.3125 336 C-116.34753225 333.34338251 -115.34041506 332.60441937 -112.23364258 331.01513672 C-106.32369887 326.85241109 -105.72110153 318.89292284 -104.19921875 312.2578125 C-103.81353417 310.66902933 -103.42533482 309.08085482 -103.0348053 307.49325562 C-102.20208821 304.08653626 -101.38631244 300.6763681 -100.58361816 297.26245117 C-99.29377331 291.77824324 -97.96596807 286.30365679 -96.63183594 280.83007812 C-95.26007835 275.194907 -93.89059889 269.55924217 -92.53421021 263.92034912 C-89.90237529 252.97913063 -87.22487614 242.0520975 -84.44140625 231.1484375 C-84.27494158 230.49629398 -84.10847691 229.84415047 -83.93696785 229.17224503 C-83.09232155 225.86560595 -82.24596541 222.55940707 -81.39901733 219.25335693 C-79.60479462 212.24507122 -77.8302292 205.23178701 -76.0546875 198.21875 C-75.86103041 197.45393185 -75.66737331 196.68911369 -75.46784782 195.90111923 C-73.85186309 189.51784287 -72.23807442 183.13401237 -70.625 176.75 C-70.32668777 175.56942017 -70.02837555 174.38884033 -69.72102356 173.17248535 C-65.41709372 156.13660523 -61.12283207 139.09832022 -56.84358978 122.05622101 C-54.99060395 114.67726898 -53.13487502 107.29903201 -51.27185059 99.92260742 C-49.67122204 93.58499521 -48.07636596 87.2459646 -46.488747 80.90508032 C-45.66445809 77.6136432 -44.8374428 74.32295172 -44.00336075 71.03398132 C-43.08684646 67.41385321 -42.18061196 63.79129949 -41.27685547 60.16796875 C-40.87037592 58.57744816 -40.87037592 58.57744816 -40.45568466 56.95479584 C-37.88606089 47.06836853 -37.88606089 47.06836853 -40.625 37.5625 C-43.59305291 31.34018908 -43.7286673 24.90344615 -41.96484375 18.265625 C-38.46040506 9.46660144 -32.0079197 2.99613107 -23.625 -1.25 C-16.26657541 -3.7028082 -6.96583521 -3.42513164 0 0 Z " fill="#FDFDFD" transform="translate(381.625,321.25)"/>
<path d="M0 0 C2.5625 0.3125 2.5625 0.3125 4.19906104 1.40538406 C6.25193242 4.27684647 5.9386639 6.63612902 5.94002342 10.13885498 C5.94656391 11.19117915 5.94656391 11.19117915 5.95323652 12.2647624 C5.96425093 14.63340686 5.95374242 17.00147625 5.94345093 19.37011719 C5.94690506 21.07823868 5.95166797 22.78635794 5.95763266 24.4944725 C5.97020599 29.20221436 5.96394363 33.90977479 5.95467401 38.61751747 C5.94790967 43.68915692 5.95835171 48.76076431 5.96661377 53.83239746 C5.97998134 63.77323223 5.97705993 73.71399919 5.96837585 83.65483665 C5.96161158 91.73111911 5.96067712 99.80738252 5.9639473 107.88366699 C5.964407 109.03139391 5.96486669 110.17912082 5.96534032 111.36162734 C5.96629946 113.69292355 5.9672721 116.02421976 5.9682581 118.35551596 C5.97682085 140.23643953 5.96696399 162.11732545 5.950857 183.99824286 C5.93745302 202.78921202 5.93978087 221.58012559 5.95361328 240.37109375 C5.96965348 262.17160585 5.97599679 283.97208491 5.96677649 305.77260208 C5.9658208 308.09551238 5.96487769 310.41842269 5.9639473 312.74133301 C5.96348447 313.88436756 5.96302164 315.02740211 5.96254479 316.20507407 C5.95995021 324.27535527 5.96433595 332.34561559 5.97138596 340.41589355 C5.97978384 350.24556544 5.97755697 360.07516542 5.96154372 369.90482903 C5.95363789 374.92387222 5.9506086 379.94279536 5.96049118 384.96183777 C5.96939093 389.55100824 5.96458372 394.13994669 5.94855852 398.72909594 C5.94519059 400.39459137 5.94694954 402.06010616 5.95418589 403.72558928 C5.9632318 405.97939154 5.95403115 408.23238587 5.94002342 410.48614502 C5.93953637 411.74101337 5.93904931 412.99588173 5.93854749 414.2887764 C5.5625 417.3125 5.5625 417.3125 4.19906104 419.21961594 C1.88458371 420.76520778 0.28270915 420.66124476 -2.4375 420.3125 C-5.28637553 417.46362447 -4.68815457 415.56907081 -4.68918228 411.57516479 C-4.69208916 410.87109285 -4.69499604 410.1670209 -4.69799101 409.44161344 C-4.70534853 407.05848434 -4.69832115 404.67560812 -4.69146729 402.29248047 C-4.69376945 400.57626144 -4.69694432 398.8600434 -4.70092177 397.14382744 C-4.709312 392.4091261 -4.70512543 387.67450484 -4.69894934 382.93980312 C-4.69444304 377.84090556 -4.70139951 372.74202222 -4.70690918 367.64312744 C-4.7158244 357.64702363 -4.71387173 347.65094977 -4.7080839 337.65484476 C-4.70357576 329.53419657 -4.70295082 321.4135568 -4.70513153 313.29290771 C-4.705438 312.13920586 -4.70574446 310.98550401 -4.70606022 309.7968415 C-4.70669964 307.45346403 -4.70734806 305.11008656 -4.7080054 302.76670909 C-4.71371493 280.76851271 -4.70714105 258.77033296 -4.69640467 236.77213931 C-4.68746859 217.87738141 -4.68902046 198.98264808 -4.69824219 180.08789062 C-4.70893384 158.17093819 -4.71316555 136.25400035 -4.70701766 114.33704567 C-4.70638053 112.00206121 -4.70575179 109.66707675 -4.70513153 107.33209229 C-4.7046687 105.60859458 -4.7046687 105.60859458 -4.70419653 103.85027874 C-4.70246627 95.7349601 -4.7053918 87.6196507 -4.71009064 79.5043335 C-4.71568722 69.62082492 -4.71420889 59.73734813 -4.70352915 49.85384321 C-4.69825589 44.80659961 -4.69624367 39.7594091 -4.70282745 34.71216583 C-4.70875501 30.09838255 -4.70556509 25.48470192 -4.69487235 20.87092805 C-4.69262467 19.19532506 -4.69380491 17.51971353 -4.69862393 15.84411597 C-4.70464173 13.57922964 -4.69853317 11.31470227 -4.68918228 9.04983521 C-4.68885758 7.78796953 -4.68853287 6.52610386 -4.68819833 5.22599983 C-4.37145603 1.54496759 -3.72499015 0.47756284 0 0 Z " fill="#38414E" transform="translate(839.4375,301.6875)"/>
<path d="M0 0 C2.875 0.75 2.875 0.75 3.875 1.75 C3.97581387 3.95289203 4.00425008 6.15909078 4.00642776 8.36428738 C4.0084804 9.06720548 4.01053303 9.77012358 4.01264787 10.49434224 C4.01835907 12.87950026 4.01685559 15.2646013 4.01544189 17.64976501 C4.01802317 19.36512032 4.02103566 21.08047502 4.0244453 22.79582888 C4.03254638 27.53276601 4.03430659 32.26968802 4.03504276 37.00663126 C4.03688792 42.10622656 4.04443245 47.20581392 4.05117798 52.30540466 C4.06478341 63.46627975 4.07078932 74.62715125 4.07518864 85.78803325 C4.07794707 92.75026129 4.08218366 99.71248794 4.08669281 106.67471504 C4.09888787 125.93230954 4.10918704 145.18990291 4.1125679 164.44750118 C4.11278747 165.68098922 4.11300703 166.91447725 4.11323325 168.18534372 C4.11345153 169.42186306 4.11366981 170.65838241 4.1138947 171.93237203 C4.11433817 174.43823175 4.11478474 176.94409146 4.11523438 179.44995117 C4.11556652 181.31445961 4.11556652 181.31445961 4.11590537 183.21663488 C4.11985592 203.37139982 4.13731672 223.52612866 4.1605939 243.68087965 C4.18427214 264.34884921 4.19676812 285.01680064 4.19793582 305.684784 C4.19885452 317.29907639 4.2046557 328.91332175 4.22275543 340.52760124 C4.23810886 350.41479933 4.24330514 360.30193585 4.23501733 370.18914359 C4.23109399 375.2384341 4.23212189 380.28760045 4.24607468 385.33687592 C4.25871335 389.95258533 4.25770548 394.568076 4.24548396 399.18378467 C4.24350941 400.86009358 4.24668537 402.53641746 4.25532833 404.21270525 C4.26627883 406.47869911 4.25903639 408.74390136 4.2469368 411.00987148 C4.24753389 412.27227923 4.24813097 413.53468697 4.24874616 414.8353495 C4.12540992 415.79718417 4.00207369 416.75901883 3.875 417.75 C0.875 419.75 0.875 419.75 -1.6875 419.5 C-4.125 418.75 -4.125 418.75 -6.125 416.75 C-6.376849 413.85047489 -6.376849 413.85047489 -6.37947559 410.04669285 C-6.38428531 408.99609944 -6.38428531 408.99609944 -6.38919219 407.92428192 C-6.39756014 405.55365252 -6.39154442 403.18327133 -6.38569641 400.81263733 C-6.38871401 399.10538024 -6.3926015 397.3981245 -6.39728898 395.69087118 C-6.4076283 390.98090709 -6.40537216 386.27101861 -6.40110838 381.56104815 C-6.39865186 376.48871375 -6.40764189 371.41639808 -6.41514587 366.34407043 C-6.42792489 356.39977144 -6.42968259 346.4554994 -6.42734561 336.51119358 C-6.42556588 328.4320294 -6.42730466 320.35287344 -6.43157005 312.27371025 C-6.43216524 311.12584785 -6.43276043 309.97798544 -6.43337366 308.79533933 C-6.43458535 306.46380159 -6.43579948 304.13226385 -6.43701603 301.80072611 C-6.44790388 279.91314022 -6.44572318 258.02556972 -6.43963119 236.13798296 C-6.43446076 216.09388539 -6.44571857 196.04983641 -6.46472941 176.00574846 C-6.48407926 155.44735044 -6.49236884 134.88897544 -6.48860615 114.33056825 C-6.48668978 102.77941982 -6.48922391 91.22831274 -6.50332069 79.67717171 C-6.51519918 69.84382054 -6.51667926 60.01053619 -6.50453053 50.17718417 C-6.49861693 45.15611948 -6.49761043 40.13517722 -6.50953293 35.11412048 C-6.52030808 30.52306517 -6.51738922 25.93223572 -6.50327124 21.34119134 C-6.50060104 19.67499088 -6.50306276 18.00877317 -6.51100711 16.34258951 C-6.52101658 14.08783136 -6.51277539 11.83387318 -6.49973011 9.57914829 C-6.49978513 8.32373787 -6.49984014 7.06832744 -6.49989682 5.77487427 C-6.125 2.75 -6.125 2.75 -4.79689187 0.80755323 C-3.125 -0.25 -3.125 -0.25 0 0 Z " fill="#38414E" transform="translate(185.125,302.25)"/>
<path d="M0 0 C8.97589664 5.28139774 14.09845878 12.6771587 16.828125 22.6640625 C18.31196875 31.36839596 15.86053549 40.32694102 10.83984375 47.5078125 C6.45946029 52.6523043 2.22332842 56.40073948 -4.171875 58.6640625 C-5.326875 59.0765625 -6.481875 59.4890625 -7.671875 59.9140625 C-16.03478439 61.70611451 -23.92698046 60.73288378 -31.375 56.375 C-33.43085343 54.90765423 -35.30374819 53.36309162 -37.171875 51.6640625 C-37.72875 51.16132812 -38.285625 50.65859375 -38.859375 50.140625 C-44.67948545 44.17501179 -47.24480986 35.88081802 -47.734375 27.6640625 C-47.24314549 18.10043797 -42.74082692 9.94394422 -35.75 3.578125 C-24.65111534 -4.66195603 -12.45706735 -5.83721219 0 0 Z " fill="#21A972" transform="translate(527.171875,524.3359375)"/>
</svg>
